<svg xmlns:mydata="http://www.w3.org/2000/svg" mydata:contrastcolor="47141e" mydata:template="Contrast" mydata:presentation="2.5" mydata:layouttype="undefined" mydata:specialfontid="undefined" mydata:id1="327" mydata:id2="989" mydata:companyname="GUÍAS" mydata:companytagline="" version="1.1" xmlns="http://www.w3.org/2000/svg" xmlns:xlink="http://www.w3.org/1999/xlink" viewBox="60 128 440 215">
  <defs>
    <linearGradient x1="65" y1="235" x2="485" y2="235" gradientUnits="userSpaceOnUse" id="color-1799892700">
      <stop offset="0" stop-color="#ed4264">
      </stop>
      <stop offset="1" stop-color="#ffedbc">
      </stop>
    </linearGradient>
  </defs>
  <g fill="url(#color-1799892700)" fill-rule="nonzero" stroke="none" stroke-width="1" stroke-linecap="butt" stroke-linejoin="miter" stroke-miterlimit="10" stroke-dasharray="" stroke-dashoffset="0" font-family="none" font-weight="none" font-size="none" text-anchor="none" style="mix-blend-mode: normal">
    <g data-paper-data="{&quot;isGlobalGroup&quot;:true,&quot;bounds&quot;:{&quot;x&quot;:65,&quot;y&quot;:131.79897034613649,&quot;width&quot;:420,&quot;height&quot;:206.40205930772706}}">
      <g data-paper-data="{&quot;isPrimaryText&quot;:true}">
        <path d="M95.71043,259.87541c3.66431,3.66431 7.8521,6.45617 12.21437,8.55006l-10.64396,10.64396c-13.26132,13.26132 -13.43581,35.42169 0,48.8575c13.43581,13.43581 35.77067,13.95929 48.8575,0l2.79186,-2.96635c7.67761,-8.20108 12.91234,-18.84504 12.91234,-30.88492v-23.03282l-36.29414,36.29414c-2.26838,2.26838 -5.58371,2.09389 -7.67761,0c-2.09389,-2.09389 -2.09389,-5.58371 0,-7.67761l70.49439,-70.66888l-20.58995,-20.58995l-30.88492,30.88492c-2.79186,2.79186 -6.97964,4.18779 -10.29497,4.18779c-3.31533,0 -7.50312,-1.39593 -10.29497,-4.18779l-2.61737,-2.61737l-20.58995,20.58995zM157.48027,198.10558c-8.55006,-8.55006 -19.71749,-12.73785 -30.88492,-12.73785c-11.16743,0 -22.33486,4.18779 -30.88492,12.73785l-30.71043,30.88492l20.58995,20.58995l30.71043,-30.88492c2.79186,-2.79186 6.97964,-4.18779 10.29497,-4.18779c3.31533,0 7.50312,1.39593 10.29497,4.18779l2.61737,2.61737l20.58995,-20.58995z" data-paper-data="{&quot;glyphName&quot;:&quot;g&quot;,&quot;glyphIndex&quot;:0,&quot;firstGlyphOfWord&quot;:true,&quot;word&quot;:1}">
        </path>
        <path d="M167.77524,185.36773v43.62277c0,6.10719 1.22144,11.34192 3.66431,16.92563l25.4757,-25.4757v-35.0727zM252.5779,249.58044v-64.21271h-29.14001v52.17283l-2.44287,2.44287c-2.79186,2.26838 -6.63066,3.48982 -9.7715,3.48982c-5.40922,0 -11.51641,-3.48982 -13.08683,-8.89904l-21.28791,21.28791c9.07354,10.99294 21.11342,16.75114 34.37474,16.75114c11.34192,0 22.50935,-4.18779 31.05941,-12.73785z" data-paper-data="{&quot;glyphName&quot;:&quot;u&quot;,&quot;glyphIndex&quot;:1,&quot;word&quot;:1}">
        </path>
        <path d="M252.5779,185.36773v64.21271l29.14001,-29.14001v-35.0727zM309.113,208.40055l-51.47486,51.47486c4.53677,8.37557 15.52971,12.73785 25.99917,12.73785h2.44287l43.62277,-43.62277zM290.96593,151.51646l-19.71749,-19.71749l-12.21437,12.21437c-4.71126,4.71126 -4.53677,22.33486 6.28168,33.1533z" data-paper-data="{&quot;glyphName&quot;:&quot;í&quot;,&quot;glyphIndex&quot;:2,&quot;word&quot;:1}">
        </path>
        <path d="M339.99792,239.28547l-2.61737,-2.61737l-20.58995,20.58995l2.61737,2.61737c8.55006,8.55006 19.71749,12.73785 30.88492,12.73785h20.76444l43.62277,-43.62277l-20.58995,-20.58995l-3.66431,3.66431c-6.97964,-16.22767 -22.85833,-26.69713 -40.30744,-26.69713c-10.99294,0 -22.16037,4.18779 -30.71043,12.73785l-30.88492,30.88492l20.58995,20.58995l30.88492,-30.88492c2.79186,-2.79186 6.97964,-4.18779 10.46946,-4.18779c7.8521,0 14.30827,6.80515 14.30827,14.48276v14.48276h-14.48276c-3.31533,0 -7.50312,-1.39593 -10.29497,-4.18779z" data-paper-data="{&quot;glyphName&quot;:&quot;a&quot;,&quot;glyphIndex&quot;:3,&quot;word&quot;:1}">
        </path>
        <path d="M464.58455,208.40055l-4.71126,4.71126c-6.63066,-10.64396 -16.57665,-17.27462 -15.35521,-27.74408h-27.3951l-43.62277,43.62277l20.58995,20.58995l32.28085,-32.28085c4.18779,6.28168 10.12048,9.07354 10.12048,15.52971c0,6.10719 -5.06024,10.64396 -12.21437,10.64396c-3.8388,0 -6.10719,-1.22144 -7.15413,-2.09389l-20.58995,20.58995c7.15413,7.15413 17.97258,10.64396 27.74408,10.64396c12.03988,0 23.73079,-5.40922 31.58288,-14.30827l29.14001,-29.14001z" data-paper-data="{&quot;glyphName&quot;:&quot;s&quot;,&quot;glyphIndex&quot;:4,&quot;lastGlyphOfWord&quot;:true,&quot;word&quot;:1}">
        </path>
      </g>
    </g>
  </g>
</svg>